# xmcd CD database file
#
# Track frame offsets:
#	150
#	14880
#	41735
#	69602
#
# Disc length: 1753 seconds
#
# Revision: 2
# Processed by: cddbd v1.4b41PL1 Copyright (c) Steve Scherf et al.
# Submitted via: Feurio! 1.51.7ß - http://www.feurio.com
#
DISCID=3706d704
DTITLE=S Club 7 - Natural
DYEAR=1900
DGENRE=
TTITLE0=Natural (Single Version)
TTITLE1=Natural (Crash and Burn Mix)
TTITLE2=Natural (Full Crew Mix Edit)
TTITLE3=Natural [CD Rom)
EXTD=
EXTT0=
EXTT1=
EXTT2=
EXTT3=
PLAYORDER=
